<svg class="svgcontainer pattern h-full" xmlns="http://www.w3.org/2000/svg" viewBox="0 0 10 10" width="1000" height="1000"><rect class="bgnya" width="10" height="10" fill="#FFF"></rect><path class="shape" d="M 0 0 l 1 0 a 1 1 0 0 1 -1 1 Z" transform="translate(0.5 0.5) rotate(90) translate(-0.5 -0.5)" fill="#fcfcfc"></path><path class="shape" d="M 0 1 l 1 0 a 1 1 0 0 1 -1 1 Z" transform="translate(0.5 1.5) rotate(180) translate(-0.5 -1.5)" fill="#3d50ff"></path><path class="shape" d="M 0 2 l 1 0 a 1 1 0 0 1 -1 1 Z" transform="translate(0.5 2.5) rotate(180) translate(-0.5 -2.5)" fill="#bb3dff"></path><path class="shape" d="M 0 3 l 1 0 a 1 1 0 0 1 -1 1 Z" transform="translate(0.5 3.5) rotate(90) translate(-0.5 -3.5)" fill="#bb3dff"></path><path class="shape" d="M 0 4 l 1 0 a 1 1 0 0 1 -1 1 Z" transform="translate(0.5 4.5) rotate(0) translate(-0.5 -4.5)" fill="#2e2e2e"></path><path class="shape" d="M 0 5 l 1 0 a 1 1 0 0 1 -1 1 Z" transform="translate(0.5 5.5) rotate(180) translate(-0.5 -5.5)" fill="#bb3dff"></path><path class="shape" d="M 0 6 l 1 0 a 1 1 0 0 1 -1 1 Z" transform="translate(0.5 6.5) rotate(270) translate(-0.5 -6.5)" fill="#fcfcfc"></path><path class="shape" d="M 0 7 l 1 0 a 1 1 0 0 1 -1 1 Z" transform="translate(0.5 7.5) rotate(90) translate(-0.5 -7.5)" fill="#bb3dff"></path><path class="shape" d="M 0 8 l 1 0 a 1 1 0 0 1 -1 1 Z" transform="translate(0.5 8.5) rotate(180) translate(-0.5 -8.5)" fill="#fcfcfc"></path><path class="shape" d="M 0 9 l 1 0 a 1 1 0 0 1 -1 1 Z" transform="translate(0.5 9.5) rotate(180) translate(-0.5 -9.5)" fill="#2e2e2e"></path><path class="shape" d="M 1 0 L 2 0 L 2 1 Z" transform="translate(1.5 0.5) rotate(90) translate(-1.5 -0.5)" fill="#fcfcfc"></path><path class="shape" d="M 1 1 L 2 1 L 2 2 Z" transform="translate(1.5 1.5) rotate(90) translate(-1.5 -1.5)" fill="#bb3dff"></path><path class="shape" d="M 1 2 L 2 2 L 2 3 Z" transform="translate(1.5 2.5) rotate(180) translate(-1.5 -2.5)" fill="#2e2e2e"></path><path class="shape" d="M 1 3 L 2 3 L 2 4 Z" transform="translate(1.5 3.5) rotate(0) translate(-1.5 -3.5)" fill="#bb3dff"></path><path class="shape" d="M 1 4 L 2 4 L 2 5 Z" transform="translate(1.5 4.5) rotate(90) translate(-1.5 -4.5)" fill="#3d50ff"></path><path class="shape" d="M 1 5 L 2 5 L 2 6 Z" transform="translate(1.5 5.5) rotate(0) translate(-1.5 -5.5)" fill="#fcfcfc"></path><path class="shape" d="M 1 6 L 2 6 L 2 7 Z" transform="translate(1.5 6.5) rotate(270) translate(-1.5 -6.5)" fill="#3d50ff"></path><path class="shape" d="M 1 7 L 2 7 L 2 8 Z" transform="translate(1.5 7.5) rotate(0) translate(-1.5 -7.5)" fill="#3d50ff"></path><path class="shape" d="M 1 8 L 2 8 L 2 9 Z" transform="translate(1.5 8.5) rotate(90) translate(-1.5 -8.5)" fill="#2e2e2e"></path><path class="shape" d="M 1 9 L 2 9 L 2 10 Z" transform="translate(1.5 9.5) rotate(0) translate(-1.5 -9.5)" fill="#bb3dff"></path><path class="shape" d="M 2 0 l 1 0 a 1 1 0 0 1 -1 1 Z" transform="translate(2.5 0.5) rotate(90) translate(-2.5 -0.5)" fill="#3d50ff"></path><path class="shape" d="M 2 1 l 1 0 a 1 1 0 0 1 -1 1 Z" transform="translate(2.5 1.5) rotate(0) translate(-2.5 -1.5)" fill="#3d50ff"></path><path class="shape" d="M 2 2 l 1 0 a 1 1 0 0 1 -1 1 Z" transform="translate(2.5 2.5) rotate(270) translate(-2.5 -2.5)" fill="#2e2e2e"></path><path class="shape" d="M 2 3 l 1 0 a 1 1 0 0 1 -1 1 Z" transform="translate(2.5 3.5) rotate(180) translate(-2.5 -3.5)" fill="#fcfcfc"></path><path class="shape" d="M 2 4 l 1 0 a 1 1 0 0 1 -1 1 Z" transform="translate(2.5 4.5) rotate(270) translate(-2.5 -4.5)" fill="#2e2e2e"></path><path class="shape" d="M 2 5 l 1 0 a 1 1 0 0 1 -1 1 Z" transform="translate(2.5 5.5) rotate(0) translate(-2.5 -5.5)" fill="#3d50ff"></path><path class="shape" d="M 2 6 l 1 0 a 1 1 0 0 1 -1 1 Z" transform="translate(2.5 6.5) rotate(270) translate(-2.5 -6.5)" fill="#bb3dff"></path><path class="shape" d="M 2 7 l 1 0 a 1 1 0 0 1 -1 1 Z" transform="translate(2.5 7.5) rotate(0) translate(-2.5 -7.5)" fill="#2e2e2e"></path><path class="shape" d="M 2 8 l 1 0 a 1 1 0 0 1 -1 1 Z" transform="translate(2.5 8.5) rotate(270) translate(-2.5 -8.5)" fill="#2e2e2e"></path><path class="shape" d="M 2 9 l 1 0 a 1 1 0 0 1 -1 1 Z" transform="translate(2.5 9.5) rotate(0) translate(-2.5 -9.5)" fill="#fcfcfc"></path><path class="shape" d="M 3 0 L 4 0 L 4 1 Z" transform="translate(3.5 0.5) rotate(0) translate(-3.5 -0.5)" fill="#fcfcfc"></path><path class="shape" d="M 3 1 L 4 1 L 4 2 Z" transform="translate(3.5 1.5) rotate(270) translate(-3.5 -1.5)" fill="#2e2e2e"></path><path class="shape" d="M 3 2 L 4 2 L 4 3 Z" transform="translate(3.5 2.5) rotate(90) translate(-3.5 -2.5)" fill="#bb3dff"></path><path class="shape" d="M 3 3 L 4 3 L 4 4 Z" transform="translate(3.5 3.5) rotate(90) translate(-3.5 -3.5)" fill="#3d50ff"></path><path class="shape" d="M 3 4 L 4 4 L 4 5 Z" transform="translate(3.5 4.5) rotate(270) translate(-3.5 -4.5)" fill="#fcfcfc"></path><path class="shape" d="M 3 5 L 4 5 L 4 6 Z" transform="translate(3.5 5.5) rotate(180) translate(-3.5 -5.5)" fill="#3d50ff"></path><path class="shape" d="M 3 6 L 4 6 L 4 7 Z" transform="translate(3.5 6.5) rotate(90) translate(-3.5 -6.5)" fill="#2e2e2e"></path><path class="shape" d="M 3 7 L 4 7 L 4 8 Z" transform="translate(3.5 7.5) rotate(180) translate(-3.5 -7.5)" fill="#bb3dff"></path><path class="shape" d="M 3 8 L 4 8 L 4 9 Z" transform="translate(3.5 8.5) rotate(90) translate(-3.5 -8.5)" fill="#fcfcfc"></path><path class="shape" d="M 3 9 L 4 9 L 4 10 Z" transform="translate(3.5 9.5) rotate(270) translate(-3.5 -9.5)" fill="#2e2e2e"></path><path class="shape" d="M 4 0 l 1 0 a 1 1 0 0 1 -1 1 Z" transform="translate(4.5 0.5) rotate(90) translate(-4.5 -0.5)" fill="#bb3dff"></path><path class="shape" d="M 4 1 l 1 0 a 1 1 0 0 1 -1 1 Z" transform="translate(4.5 1.5) rotate(270) translate(-4.5 -1.5)" fill="#3d50ff"></path><path class="shape" d="M 4 2 l 1 0 a 1 1 0 0 1 -1 1 Z" transform="translate(4.5 2.5) rotate(0) translate(-4.5 -2.5)" fill="#3d50ff"></path><path class="shape" d="M 4 3 l 1 0 a 1 1 0 0 1 -1 1 Z" transform="translate(4.5 3.5) rotate(0) translate(-4.5 -3.5)" fill="#3d50ff"></path><path class="shape" d="M 4 4 l 1 0 a 1 1 0 0 1 -1 1 Z" transform="translate(4.5 4.5) rotate(180) translate(-4.5 -4.5)" fill="#3d50ff"></path><path class="shape" d="M 4 5 l 1 0 a 1 1 0 0 1 -1 1 Z" transform="translate(4.5 5.5) rotate(0) translate(-4.5 -5.5)" fill="#fcfcfc"></path><path class="shape" d="M 4 6 l 1 0 a 1 1 0 0 1 -1 1 Z" transform="translate(4.5 6.5) rotate(180) translate(-4.5 -6.5)" fill="#3d50ff"></path><path class="shape" d="M 4 7 l 1 0 a 1 1 0 0 1 -1 1 Z" transform="translate(4.5 7.5) rotate(90) translate(-4.5 -7.5)" fill="#2e2e2e"></path><path class="shape" d="M 4 8 l 1 0 a 1 1 0 0 1 -1 1 Z" transform="translate(4.5 8.5) rotate(180) translate(-4.5 -8.5)" fill="#3d50ff"></path><path class="shape" d="M 4 9 l 1 0 a 1 1 0 0 1 -1 1 Z" transform="translate(4.5 9.5) rotate(90) translate(-4.5 -9.5)" fill="#bb3dff"></path><path class="shape" d="M 5 0 L 6 0 L 6 1 Z" transform="translate(5.5 0.5) rotate(180) translate(-5.5 -0.5)" fill="#bb3dff"></path><path class="shape" d="M 5 1 L 6 1 L 6 2 Z" transform="translate(5.5 1.5) rotate(90) translate(-5.5 -1.5)" fill="#2e2e2e"></path><path class="shape" d="M 5 2 L 6 2 L 6 3 Z" transform="translate(5.5 2.5) rotate(180) translate(-5.5 -2.5)" fill="#3d50ff"></path><path class="shape" d="M 5 3 L 6 3 L 6 4 Z" transform="translate(5.5 3.5) rotate(180) translate(-5.5 -3.5)" fill="#fcfcfc"></path><path class="shape" d="M 5 4 L 6 4 L 6 5 Z" transform="translate(5.5 4.5) rotate(0) translate(-5.5 -4.5)" fill="#fcfcfc"></path><path class="shape" d="M 5 5 L 6 5 L 6 6 Z" transform="translate(5.5 5.5) rotate(90) translate(-5.5 -5.5)" fill="#bb3dff"></path><path class="shape" d="M 5 6 L 6 6 L 6 7 Z" transform="translate(5.5 6.5) rotate(90) translate(-5.5 -6.5)" fill="#fcfcfc"></path><path class="shape" d="M 5 7 L 6 7 L 6 8 Z" transform="translate(5.5 7.5) rotate(180) translate(-5.5 -7.5)" fill="#2e2e2e"></path><path class="shape" d="M 5 8 L 6 8 L 6 9 Z" transform="translate(5.5 8.5) rotate(180) translate(-5.5 -8.5)" fill="#3d50ff"></path><path class="shape" d="M 5 9 L 6 9 L 6 10 Z" transform="translate(5.5 9.5) rotate(180) translate(-5.5 -9.5)" fill="#3d50ff"></path><path class="shape" d="M 6 0 l 1 0 a 1 1 0 0 1 -1 1 Z" transform="translate(6.5 0.5) rotate(180) translate(-6.5 -0.5)" fill="#bb3dff"></path><path class="shape" d="M 6 1 l 1 0 a 1 1 0 0 1 -1 1 Z" transform="translate(6.5 1.5) rotate(0) translate(-6.5 -1.5)" fill="#bb3dff"></path><path class="shape" d="M 6 2 l 1 0 a 1 1 0 0 1 -1 1 Z" transform="translate(6.5 2.5) rotate(270) translate(-6.5 -2.5)" fill="#3d50ff"></path><path class="shape" d="M 6 3 l 1 0 a 1 1 0 0 1 -1 1 Z" transform="translate(6.5 3.5) rotate(90) translate(-6.5 -3.5)" fill="#3d50ff"></path><path class="shape" d="M 6 4 l 1 0 a 1 1 0 0 1 -1 1 Z" transform="translate(6.5 4.5) rotate(180) translate(-6.5 -4.5)" fill="#2e2e2e"></path><path class="shape" d="M 6 5 l 1 0 a 1 1 0 0 1 -1 1 Z" transform="translate(6.5 5.5) rotate(270) translate(-6.5 -5.5)" fill="#bb3dff"></path><path class="shape" d="M 6 6 l 1 0 a 1 1 0 0 1 -1 1 Z" transform="translate(6.5 6.5) rotate(270) translate(-6.5 -6.5)" fill="#2e2e2e"></path><path class="shape" d="M 6 7 l 1 0 a 1 1 0 0 1 -1 1 Z" transform="translate(6.5 7.5) rotate(180) translate(-6.5 -7.5)" fill="#bb3dff"></path><path class="shape" d="M 6 8 l 1 0 a 1 1 0 0 1 -1 1 Z" transform="translate(6.5 8.5) rotate(180) translate(-6.5 -8.5)" fill="#2e2e2e"></path><path class="shape" d="M 6 9 l 1 0 a 1 1 0 0 1 -1 1 Z" transform="translate(6.5 9.5) rotate(0) translate(-6.5 -9.5)" fill="#3d50ff"></path><path class="shape" d="M 7 0 L 8 0 L 8 1 Z" transform="translate(7.5 0.5) rotate(270) translate(-7.5 -0.5)" fill="#3d50ff"></path><path class="shape" d="M 7 1 L 8 1 L 8 2 Z" transform="translate(7.5 1.5) rotate(180) translate(-7.5 -1.5)" fill="#2e2e2e"></path><path class="shape" d="M 7 2 L 8 2 L 8 3 Z" transform="translate(7.5 2.5) rotate(180) translate(-7.5 -2.5)" fill="#fcfcfc"></path><path class="shape" d="M 7 3 L 8 3 L 8 4 Z" transform="translate(7.5 3.5) rotate(270) translate(-7.5 -3.5)" fill="#2e2e2e"></path><path class="shape" d="M 7 4 L 8 4 L 8 5 Z" transform="translate(7.5 4.5) rotate(0) translate(-7.5 -4.5)" fill="#2e2e2e"></path><path class="shape" d="M 7 5 L 8 5 L 8 6 Z" transform="translate(7.5 5.5) rotate(180) translate(-7.5 -5.5)" fill="#bb3dff"></path><path class="shape" d="M 7 6 L 8 6 L 8 7 Z" transform="translate(7.5 6.5) rotate(90) translate(-7.5 -6.5)" fill="#3d50ff"></path><path class="shape" d="M 7 7 L 8 7 L 8 8 Z" transform="translate(7.5 7.5) rotate(180) translate(-7.5 -7.5)" fill="#2e2e2e"></path><path class="shape" d="M 7 8 L 8 8 L 8 9 Z" transform="translate(7.5 8.5) rotate(90) translate(-7.5 -8.5)" fill="#3d50ff"></path><path class="shape" d="M 7 9 L 8 9 L 8 10 Z" transform="translate(7.5 9.5) rotate(0) translate(-7.5 -9.5)" fill="#bb3dff"></path><path class="shape" d="M 8 0 l 1 0 a 1 1 0 0 1 -1 1 Z" transform="translate(8.5 0.5) rotate(90) translate(-8.5 -0.5)" fill="#3d50ff"></path><path class="shape" d="M 8 1 l 1 0 a 1 1 0 0 1 -1 1 Z" transform="translate(8.5 1.5) rotate(270) translate(-8.5 -1.5)" fill="#2e2e2e"></path><path class="shape" d="M 8 2 l 1 0 a 1 1 0 0 1 -1 1 Z" transform="translate(8.5 2.5) rotate(90) translate(-8.5 -2.5)" fill="#fcfcfc"></path><path class="shape" d="M 8 3 l 1 0 a 1 1 0 0 1 -1 1 Z" transform="translate(8.5 3.5) rotate(270) translate(-8.5 -3.5)" fill="#bb3dff"></path><path class="shape" d="M 8 4 l 1 0 a 1 1 0 0 1 -1 1 Z" transform="translate(8.5 4.5) rotate(90) translate(-8.5 -4.5)" fill="#fcfcfc"></path><path class="shape" d="M 8 5 l 1 0 a 1 1 0 0 1 -1 1 Z" transform="translate(8.5 5.5) rotate(180) translate(-8.5 -5.5)" fill="#bb3dff"></path><path class="shape" d="M 8 6 l 1 0 a 1 1 0 0 1 -1 1 Z" transform="translate(8.5 6.5) rotate(90) translate(-8.5 -6.5)" fill="#fcfcfc"></path><path class="shape" d="M 8 7 l 1 0 a 1 1 0 0 1 -1 1 Z" transform="translate(8.5 7.5) rotate(180) translate(-8.5 -7.5)" fill="#bb3dff"></path><path class="shape" d="M 8 8 l 1 0 a 1 1 0 0 1 -1 1 Z" transform="translate(8.5 8.5) rotate(180) translate(-8.5 -8.5)" fill="#3d50ff"></path><path class="shape" d="M 8 9 l 1 0 a 1 1 0 0 1 -1 1 Z" transform="translate(8.5 9.5) rotate(0) translate(-8.5 -9.5)" fill="#3d50ff"></path><path class="shape" d="M 9 0 L 10 0 L 10 1 Z" transform="translate(9.5 0.5) rotate(270) translate(-9.5 -0.5)" fill="#bb3dff"></path><path class="shape" d="M 9 1 L 10 1 L 10 2 Z" transform="translate(9.5 1.5) rotate(0) translate(-9.5 -1.5)" fill="#2e2e2e"></path><path class="shape" d="M 9 2 L 10 2 L 10 3 Z" transform="translate(9.5 2.5) rotate(90) translate(-9.5 -2.5)" fill="#3d50ff"></path><path class="shape" d="M 9 3 L 10 3 L 10 4 Z" transform="translate(9.5 3.5) rotate(0) translate(-9.5 -3.5)" fill="#fcfcfc"></path><path class="shape" d="M 9 4 L 10 4 L 10 5 Z" transform="translate(9.5 4.5) rotate(270) translate(-9.5 -4.5)" fill="#fcfcfc"></path><path class="shape" d="M 9 5 L 10 5 L 10 6 Z" transform="translate(9.5 5.5) rotate(0) translate(-9.5 -5.5)" fill="#fcfcfc"></path><path class="shape" d="M 9 6 L 10 6 L 10 7 Z" transform="translate(9.5 6.5) rotate(180) translate(-9.5 -6.5)" fill="#bb3dff"></path><path class="shape" d="M 9 7 L 10 7 L 10 8 Z" transform="translate(9.5 7.5) rotate(90) translate(-9.5 -7.5)" fill="#3d50ff"></path><path class="shape" d="M 9 8 L 10 8 L 10 9 Z" transform="translate(9.5 8.5) rotate(90) translate(-9.5 -8.5)" fill="#2e2e2e"></path><path class="shape" d="M 9 9 L 10 9 L 10 10 Z" transform="translate(9.5 9.5) rotate(0) translate(-9.5 -9.5)" fill="#fcfcfc"></path></svg>